<svg width="128" height="128" viewBox="0 0 128 128" fill="none" xmlns="http://www.w3.org/2000/svg">
<path d="M16.5714 44.0992L40.47 62.3107L47.1429 57.2247C47.3912 57.0356 47.6942 56.9333 48.0057 56.9333C48.3173 56.9333 48.6203 57.0356 48.8686 57.2247L55.5357 62.305L79.4286 44.0992V16.7547H16.5714V44.0992ZM48 23.9302C51.4088 23.934 54.6768 25.296 57.0872 27.7174C59.4976 30.1388 60.8534 33.4218 60.8571 36.8462V39.7164C60.8587 40.6502 60.5573 41.5592 59.9987 42.3056C59.44 43.052 58.6546 43.5952 57.7611 43.8531C56.8677 44.111 55.9149 44.0694 55.0471 43.7347C54.1792 43.4001 53.4436 42.7904 52.9514 41.9982C51.7658 43.1417 50.2233 43.8386 48.585 43.9708C46.9467 44.103 45.3132 43.6624 43.9612 42.7236C42.6091 41.7848 41.6215 40.4055 41.1655 38.8192C40.7096 37.2329 40.8133 35.537 41.4591 34.0187C42.1049 32.5004 43.2532 31.2529 44.7094 30.4875C46.1657 29.722 47.8406 29.4856 49.4505 29.8182C51.0604 30.1509 52.5064 31.0322 53.5437 32.3129C54.5811 33.5936 55.146 35.1951 55.1429 36.8462V39.7164C55.1429 40.097 55.2934 40.462 55.5613 40.7312C55.8292 41.0003 56.1925 41.1515 56.5714 41.1515C56.9503 41.1515 57.3137 41.0003 57.5816 40.7312C57.8495 40.462 58 40.097 58 39.7164V36.8462C58 34.8593 57.4135 32.9171 56.3147 31.2651C55.2159 29.613 53.6541 28.3255 51.8268 27.5651C49.9996 26.8048 47.9889 26.6058 46.0491 26.9935C44.1093 27.3811 42.3275 28.3378 40.9289 29.7428C39.5304 31.1477 38.578 32.9377 38.1921 34.8863C37.8063 36.835 38.0043 38.8549 38.7612 40.6905C39.5181 42.5261 40.7998 44.0951 42.4443 45.1989C44.0888 46.3027 46.0222 46.8919 48 46.8919H52.2857C52.6646 46.8919 53.028 47.0431 53.2959 47.3123C53.5638 47.5814 53.7143 47.9464 53.7143 48.327C53.7143 48.7076 53.5638 49.0727 53.2959 49.3418C53.028 49.6109 52.6646 49.7621 52.2857 49.7621H48C44.5901 49.7621 41.3198 48.4013 38.9086 45.9791C36.4974 43.5569 35.1429 40.2717 35.1429 36.8462C35.1429 33.4206 36.4974 30.1354 38.9086 27.7132C41.3198 25.291 44.5901 23.9302 48 23.9302Z" fill="#008080"/>
<path d="M48 41.1515C50.3669 41.1515 52.2857 39.2239 52.2857 36.8462C52.2857 34.4684 50.3669 32.5408 48 32.5408C45.6331 32.5408 43.7143 34.4684 43.7143 36.8462C43.7143 39.2239 45.6331 41.1515 48 41.1515Z" fill="#008080"/>
<path d="M8.93573 38.2813L13.7143 41.9221V34.6404L8.93573 38.2813Z" fill="#008080"/>
<path d="M8 87.0548L38.1057 64.1118L8 41.1716V87.0548Z" fill="#008080"/>
<path d="M82.2857 41.9221L87.0643 38.2813L82.2857 34.6418V41.9221Z" fill="#008080"/>
<path d="M88 41.1716L57.8943 64.1118L88 87.0548V41.1716Z" fill="#008080"/>
<path d="M48 60.1738L10.8186 88.51H85.1814L48 60.1738Z" fill="#008080"/>
<path d="M40.9471 13.8845H55.0529L48 8.50999L40.9471 13.8845Z" fill="#008080"/>
</svg>
